<?xml version="1.0" standalone="no"?><svg xmlns="http://www.w3.org/2000/svg" viewBox="0 0 1440 320"><path fill="#000b76" fill-opacity="1" d="M0,0L15,16C30,32,60,64,90,90.7C120,117,150,139,180,133.3C210,128,240,96,270,112C300,128,330,192,360,186.7C390,181,420,107,450,112C480,117,510,203,540,229.3C570,256,600,224,630,218.7C660,213,690,235,720,250.7C750,267,780,277,810,277.3C840,277,870,267,900,218.7C930,171,960,85,990,42.7C1020,0,1050,0,1080,10.7C1110,21,1140,43,1170,53.3C1200,64,1230,64,1260,96C1290,128,1320,192,1350,186.7C1380,181,1410,107,1425,69.3L1440,32L1440,320L1425,320C1410,320,1380,320,1350,320C1320,320,1290,320,1260,320C1230,320,1200,320,1170,320C1140,320,1110,320,1080,320C1050,320,1020,320,990,320C960,320,930,320,900,320C870,320,840,320,810,320C780,320,750,320,720,320C690,320,660,320,630,320C600,320,570,320,540,320C510,320,480,320,450,320C420,320,390,320,360,320C330,320,300,320,270,320C240,320,210,320,180,320C150,320,120,320,90,320C60,320,30,320,15,320L0,320Z"></path></svg>